<svg xmlns="http://www.w3.org/2000/svg" viewBox="0 0 611.5 373.63"><defs><style>.c5ab371e-4804-4b76-a2ff-4f2495e775fa{fill:#efff78;}.bc2e14dd-afd6-46fd-8106-95f6f7a86a21{fill:#74ecf2;}.c6f68111-248b-42bd-b65a-6fda8efde9e0{fill:#2bff06;}.\32 607b673-a22d-473d-8d01-a49b392d17bf,.\33 8f6be51-9a9c-4b3c-8f06-a815be343775{fill:#5eff00;}.\32 607b673-a22d-473d-8d01-a49b392d17bf{stroke:#7ac943;stroke-miterlimit:10;stroke-width:0.5px;}.\36 cc010b3-de25-466c-a997-527bfbe989de{fill:#6ad326;}.f2dd3f25-b6d6-4722-9989-0261fa7b0614{fill:#52b518;}.\34 0770f24-10e5-4bcd-b203-39a1c7a9109d{fill:#c2ed31;}.\33 824e2d9-a377-46c2-8c64-904eb5adcfeb{fill:#aee014;}</style></defs><title>Recurso 7</title><g id="544ccd39-c84f-4e70-bb73-8a839cb513cc" data-name="Capa 2"><g id="a0b3add2-8299-4060-8b46-80e4c4f1f32f" data-name="Capa 1"><path class="c5ab371e-4804-4b76-a2ff-4f2495e775fa" d="M18.79,208.73a.75.75,0,0,1,.78-.36A.79.79,0,0,1,18.79,208.73Z"/><path class="bc2e14dd-afd6-46fd-8106-95f6f7a86a21" d="M526.25,224.63c-51.42,0-469.93-5.48-521.35-5.53-1.29,0-2.65.84-3.85-1.62a32.25,32.25,0,0,1-.31-6.86Q.73,109.06.74,7.5A33.33,33.33,0,0,1,1,.61c.66-.94,1.36-.48,2-.48q303.08,0,606.15,0c.68,0,1.38-.54,2,.55v224"/><path class="c6f68111-248b-42bd-b65a-6fda8efde9e0" d="M324.16,337.18c-.38-.45-.46.05-.51.38"/><line class="c6f68111-248b-42bd-b65a-6fda8efde9e0" x1="445.13" y1="307.15" x2="445.14" y2="307.16"/><path class="c6f68111-248b-42bd-b65a-6fda8efde9e0" d="M454.51,308.31c-.12-.46-.18-.44-1.63-.89"/><path class="c6f68111-248b-42bd-b65a-6fda8efde9e0" d="M467.93,307.89a1.3,1.3,0,0,0-.06-1.26"/><path class="c6f68111-248b-42bd-b65a-6fda8efde9e0" d="M473.55,305.88a8.55,8.55,0,0,0-1.14,2.2"/><path class="c6f68111-248b-42bd-b65a-6fda8efde9e0" d="M477.49,307.16c.11-.94-1-1.65-.5-2.34a3.51,3.51,0,0,1-1,1.91c0,.14,0,.28,0,.42s-.23.29-.37.43"/><path class="c6f68111-248b-42bd-b65a-6fda8efde9e0" d="M481.12,304.11c-.84.66-1.23,1.74-2.14,2.2h0"/><path class="c6f68111-248b-42bd-b65a-6fda8efde9e0" d="M482.84,306.91c-.62.13-.47,1.25-1.22,1.09h0"/><path class="38f6be51-9a9c-4b3c-8f06-a815be343775" d="M.26,310.71c0-2.17-.06-4.33,0-6.5.31-4,.07-8.09.14-12.13s-.11-8.37.09-12.56C1,278.42,2,278.27,2.88,278c20.59-5.43,41.26-10.38,62.29-13.19,4.52-.61,9-1.49,13.62-1.39a5.74,5.74,0,0,0,1.47-.3A219.84,219.84,0,0,1,112,262.2c18.92.7,37.46,4.55,55.89,9.2a488.26,488.26,0,0,0,57.79,11.08c1.19.15,2.37.32,3.55.53,4.2.79,8.46.95,12.69,1.45,12.77,1.5,25.57,2.66,38.37,3.69,7,.56,14,1,21,1.47,9.38.59,18.76.94,28.14,1.55,4.24.27,8.52.37,12.76.4,14.16.08,28.32.95,42.48.47,10.9-.37,21.8-.34,32.69-.86,9.69-.47,19.39-.94,29.07-1.69,13.87-1.08,27.72-2.36,41.56-4,17.7-2.11,35.33-4.82,53-7.17,13.81-1.84,27.64-3.6,41.51-4.69,6.12-.48,12.24-1.09,18.39-1,2.63.05,5.24-.6,7.88-.4a3.37,3.37,0,0,1,2.49.69v26.61c-.55-.38-.27-1.15-.67-2.15-.06,1.49-.11,2.48-.15,3.53"/><path class="2607b673-a22d-473d-8d01-a49b392d17bf" d="M611.25,211.56v34.63a2.42,2.42,0,0,1-2.34.35c-10-1.85-20.1-3.09-30.21-4.08-6.23-.6-12.48-1.07-18.72-1.57-16.89-1.33-33.79-1.31-50.69-1.24-9.71,0-19.39.6-29.08,1.2-8.5.54-17,1.41-25.46,2.22a4.77,4.77,0,0,0-2.28.17,3.54,3.54,0,0,1-1.65,0c-12.87-3.06-25.72-6.2-38.64-8.93-7.91-1.67-15.89-2.89-23.88-4-13-1.85-26-1.81-39-1.49-6.84.17-13.68,1.06-20.51,1.89-15.62,1.89-31.06,5-46.48,8.21-11.33,2.4-22.64,4.94-34,7.25a437.43,437.43,0,0,1-44.84,7.14c-7,.68-14,.92-21,1.35-6.41.38-12.78,0-19.14-.28a266.32,266.32,0,0,1-29.37-3c-20.47-3-40.66-7.72-60.78-12.8-13.54-3.41-27-7.06-40.65-10.11a167.16,167.16,0,0,0-19.07-3.21,111.59,111.59,0,0,0-11.4-.81,2.6,2.6,0,0,1-1.28-.3,1.1,1.1,0,0,1-.45-.58c-.21-3.92,0-7.84-.11-11.75,0-1.51.66-2,1.81-2s2.46-.19,3.69-.3a8.51,8.51,0,0,0,2.61-.2,34.8,34.8,0,0,0,4.89-.22,24.58,24.58,0,0,0,3.43-.11c.48-.17,1,0,1.49-.25.4-.06.8-.18,1.2-.27a7.82,7.82,0,0,1,1.92-.23c4.63-.36,9.27-.21,13.9-.27a340.86,340.86,0,0,1,50.94,3.65c10.76,1.51,21.49,3.2,32.29,4.23,7.48.71,15,1.34,22.48,1.47,5.76.1,11.52.65,17.27.33,6.75-.38,13.51-.28,20.24-1a4.72,4.72,0,0,1,1.39-.2c2.07-.05,4.14.13,6.2.2h4a4,4,0,0,0,1.83-.23,5.57,5.57,0,0,1,2.07-.19,2.56,2.56,0,0,0,1.41-.28,8.88,8.88,0,0,1,2.3-.15,2.92,2.92,0,0,0,1.12-.2,5.07,5.07,0,0,1,2-.22,2.43,2.43,0,0,0,1.37-.26,6.11,6.11,0,0,1,1.95-.16,2.8,2.8,0,0,0,1.1-.21,5.22,5.22,0,0,1,1.92-.22,2.55,2.55,0,0,0,1.09-.2,4.06,4.06,0,0,1,1.65-.21,3.15,3.15,0,0,0,1.63-.24,3.07,3.07,0,0,1,1.37-.19,3.4,3.4,0,0,0,1.37-.19,9.59,9.59,0,0,1,1.92-.23,3.18,3.18,0,0,0,1.1-.19,10.2,10.2,0,0,1,1.66-.23,4.27,4.27,0,0,0,1.66-.18,11.79,11.79,0,0,1,1.67-.24,3.67,3.67,0,0,0,1.39-.2,11.88,11.88,0,0,1,1.68-.22,4.46,4.46,0,0,0,1.7-.2,9.33,9.33,0,0,1,2.29-.23,3.68,3.68,0,0,0,1.14-.19,9.86,9.86,0,0,0,2-.22,6.51,6.51,0,0,0,2.06-.2,21.24,21.24,0,0,0,2.39-.23,5,5,0,0,0,1.81-.2,21.7,21.7,0,0,0,2.79-.22,8.4,8.4,0,0,0,2.29-.21c7-.52,14-1,21-1.2q11-.34,22-.32c3.83,0,7.64.28,11.46.26,3.45,0,6.88-.19,10.32-.42a78.08,78.08,0,0,1,10.7.49q16.51,1.23,32.92,3.62c9.7,1.4,19.39,2.92,29.09,4.35,11.68,1.72,23.37,3.31,35.14,4.21a308.2,308.2,0,0,0,34.37,1.12c9.13-.32,18.27-.73,27.39-1.49,13.19-1.11,26.34-2.65,39.5-4a59.23,59.23,0,0,1,6.39-.05c4.51,0,8.94-.82,13.41-1.24,6.59-.62,13.17-1.41,19.77-1.94,7.55-.59,15.1-1.14,22.66-1.53,9.63-.5,19.27-.51,28.91-.78A3.66,3.66,0,0,1,611.25,211.56Z"/><path class="38f6be51-9a9c-4b3c-8f06-a815be343775" d="M611.25,248.05v25.34a2.19,2.19,0,0,1-1.75.66c-3-.15-6,.41-9,.45-8.31.13-16.59.83-24.87,1.58-26.06,2.35-51.94,6.45-77.9,9.7-13,1.62-26.05,3-39.11,4-10.55.83-21.1,1.58-31.66,2.08-6.91.34-13.84.48-20.75.87-8.56.5-17.13,0-25.68.39-12.28.61-24.54-.12-36.81-.17-10.62-.05-21.26-.61-31.88-1.21s-21.36-1.24-32-2.09c-12.05-.95-24.09-2-36.12-3.3a4.24,4.24,0,0,1-1.84-.43.68.68,0,0,1-.32-.62c.55-1,1.46-1,2.33-1.12,12.38-1.54,24.71-3.58,37-5.71,10.32-1.79,20.64-3.66,30.92-5.71q20.16-4,40.18-8.89c8.06-2,16.14-3.8,24.2-5.75,13-3.14,26.14-6,39.26-8.69,6.87-1.4,13.78-2.58,20.69-3.77,5.53-1,11.12-1.31,16.64-2.38,8-1.1,16-1.71,24-2.32,9.35-.7,18.71-1,28.07-1.34,8.94-.34,17.87-.43,26.79-.17,16.09.48,32.16,1.31,48.19,3.12,9.52,1.07,19,2.14,28.46,3.93C609.38,246.72,610.58,246.77,611.25,248.05Z"/><path class="6cc010b3-de25-466c-a997-527bfbe989de" d="M611.25,248.05c-2.41-1-5-1.2-7.48-1.66-3.55-.66-7.12-1.29-10.71-1.62-2.73-.24-5.44-.68-8.15-1-3.46-.42-6.94-.58-10.39-1.07-2.14-.3-4.35-.39-6.51-.6-2.79-.28-5.61-.12-8.37-.73a2.09,2.09,0,0,0-.56,0c-3.82.27-7.61-.31-11.4-.52-4.37-.25-8.75,0-13.1-.4-8.69-.72-17.38-.41-26.06-.23-4.23.09-8.5-.05-12.72.36-3,.3-6,.13-9,.4-4,.37-8.09.43-12.1.88-3.71.42-7.44.62-11.15,1.08a37,37,0,0,1-5.95.54c-1.44-.06-2.82.66-4.27.42-2.1.25-4.21.53-6.28-.23a.62.62,0,0,1-.16-.67c1.33-1,2.78-.3,4.18-.38h1.5c.57-.48,1.32.09,1.89-.41a57.07,57.07,0,0,0,6.87-.77,42.15,42.15,0,0,1,4.46-.38c2.5-.12,5-.36,7.47-.64,2.79-.32,5.62,0,8.38-.68a1.75,1.75,0,0,1,.56,0c4,.22,8-.32,12-.51,15-.71,29.92-.3,44.87-.27,3.67,0,7.37.12,11,.4,4.24.33,8.48.45,12.7.87a61.39,61.39,0,0,1,7.26.66,31.3,31.3,0,0,0,5,.42c3.5.16,7,.63,10.43,1,5.75.66,11.52,1.21,17.22,2.37,2.81.57,5.67.91,8.5,1.35Z"/><path class="f2dd3f25-b6d6-4722-9989-0261fa7b0614" d="M243.59,285.63a47.26,47.26,0,0,0-9.26.77,31.22,31.22,0,0,1-5,.08,39.23,39.23,0,0,1-6.3-.73c-2.4-.37-4.82-.62-7.22-1q-2.78-.39-5.54-.89c-2.94-.52-5.87-1.15-8.83-1.6-5.42-.84-10.79-2-16.15-3.22-9.44-2.18-18.91-4.26-28.31-6.6-5.72-1.43-11.48-2.48-17.23-3.62-3.24-.64-6.53-1-9.8-1.44s-6.71-.43-10-1.18c-.12,0-.25,0-.37,0-8.68-.55-17.38-.59-26.06-.34-4.34.12-8.7.49-13,.76A11.46,11.46,0,0,1,74,265.45a.61.61,0,0,1,.08-.67c1.76-.77,3.65-.48,5.45-.87a10.83,10.83,0,0,1,1.61,0A6.27,6.27,0,0,0,84,263.6c7.18-.8,14.38-.5,21.57-.61,15.72-.22,31.21,2,46.61,5.28,14,3,27.92,6.68,42,9.37,12.53,2.39,25.12,4.26,37.75,5.77,3.17.58,6.39.69,9.57,1.14.72.1,1.5,0,2.07.67C243.58,285.36,243.58,285.5,243.59,285.63Z"/><path class="f2dd3f25-b6d6-4722-9989-0261fa7b0614" d="M74,265.36c1.84-.08,3.51.83,5.3,1.08.37.05.73.13,1.1.19a.91.91,0,0,1-.83.41,33.17,33.17,0,0,0-6.52.46c-2.78.3-5.54.8-8.31,1.11-2.17.24-4.32.6-6.47,1-2.82.48-5.65.91-8.47,1.4s-5.89,1-8.82,1.59c-2.64.52-5.25,1.15-7.87,1.72q-5.67,1.24-11.32,2.62c-3.82.94-7.66,1.84-11.46,2.91-3.08.87-6.18,1.63-9.27,2.43A5.63,5.63,0,0,1,1,279.7c.52-1.08,1.53-1.16,2.42-1.39,17.55-4.55,35.18-8.68,53-11.48,4.52-.71,9-1.4,13.59-1.92C71.38,264.76,72.78,264.35,74,265.36Z"/><path class="f2dd3f25-b6d6-4722-9989-0261fa7b0614" d="M1.12,224.68l.5-1.14a54.63,54.63,0,0,1,10.47.54,182.13,182.13,0,0,1,19.19,3.12q11.44,2.6,22.82,5.52C63,235,72,237.33,80.89,239.5q9.77,2.35,19.56,4.62c6.33,1.47,12.71,2.66,19.09,3.88,4.11.79,8.23,1.48,12.35,2.1,3.52.53,7.05.9,10.57,1.34,4.33.55,8.67,1,13,1.33a161.44,161.44,0,0,0,16.45.77c1.5,0,2.92.67,4.48.37a32.36,32.36,0,0,1,8.83-.61,86.06,86.06,0,0,0,16.57-.69c3-.33,6.06-.71,9.08-1.06,3.24-.38,6.45-.91,9.68-1.33q4.23-.57,8.45-1.31c5.53-1,11.06-1.93,16.57-3,3.43-.66,6.85-1.44,10.27-2.18l17-3.7c4.4-1,8.79-1.94,13.19-2.84,5.33-1.07,10.67-2.07,16-3.09,3.49-.68,7-1.57,10.48-2,3.29-.37,6.51-1.21,9.81-1.45,2.6-.18,5.17-.77,7.76-1.12,1.73-.23,3.48-.29,5.21-.54,2.28-.32,4.6-.22,6.86-.74h.07c7.34-.62,14.7-.5,22.06-.5a49.85,49.85,0,0,1,7.13.07c3.1.45,6.22.19,9.32.66,1.77.27,3.59.45,5.39.58,2.61.19,5.2.59,7.79,1,3.08.46,6.15,1,9.22,1.53,2.33.4,4.67.83,7,1.32,5.26,1.1,10.53,2.12,15.76,3.41,4.88,1.2,9.8,2.17,14.65,3.57,3.29,1,6.69,1.46,10,2.26a1.15,1.15,0,0,1,.63.4,10.56,10.56,0,0,1-4.14.43c-.84.6-1.72.21-2.54,0-10.11-2.43-20.2-4.92-30.34-7.16-8.24-1.83-16.51-3.4-24.86-4.42a176.09,176.09,0,0,0-22.47-1.75c-3.43,0-6.86-.06-10.29,0a241.4,241.4,0,0,0-26,1.88c-10.84,1.25-21.61,3.12-32.33,5.34-9.92,2.05-19.81,4.24-29.7,6.44-16.71,3.72-33.44,7.39-50.34,9.9-8.81,1.3-17.66,2.17-26.54,2.78-8,.55-16,.44-24,.25-7.56-.19-15.11-1-22.65-1.84-8.23-1-16.39-2.39-24.55-3.84C111.74,249,103.15,247,94.57,245c-12.89-3-25.67-6.48-38.49-9.78C47.53,233,39,230.67,30.4,228.87s-17.53-3.39-26.47-3.4C3,225.47,1.93,225.63,1.12,224.68Z"/><path class="40770f24-10e5-4bcd-b203-39a1c7a9109d" d="M454.49,242.14c-.54.67-1.25.33-1.89.41C453.14,241.88,453.85,242.21,454.49,242.14Z"/><path class="c5ab371e-4804-4b76-a2ff-4f2495e775fa" d="M210.14,214.22c.41-.56,1-.33,1.48-.38C211.22,214.42,210.66,214.21,210.14,214.22Z"/><path class="c5ab371e-4804-4b76-a2ff-4f2495e775fa" d="M219.16,213c.41-.57,1-.34,1.49-.38C220.24,213.15,219.68,212.94,219.16,213Z"/><path class="c5ab371e-4804-4b76-a2ff-4f2495e775fa" d="M198.11,215.9a.74.74,0,0,1,.74-.36A.68.68,0,0,1,198.11,215.9Z"/><path class="c5ab371e-4804-4b76-a2ff-4f2495e775fa" d="M204.5,215.05a.76.76,0,0,1,.74-.36A.68.68,0,0,1,204.5,215.05Z"/><path class="c5ab371e-4804-4b76-a2ff-4f2495e775fa" d="M207.51,214.63a.75.75,0,0,1,.74-.36A.68.68,0,0,1,207.51,214.63Z"/><path class="c5ab371e-4804-4b76-a2ff-4f2495e775fa" d="M216.53,213.37a.74.74,0,0,1,.74-.37A.68.68,0,0,1,216.53,213.37Z"/><path class="c5ab371e-4804-4b76-a2ff-4f2495e775fa" d="M229.69,211.68a.74.74,0,0,1,.74-.37A.69.69,0,0,1,229.69,211.68Z"/><path class="6cc010b3-de25-466c-a997-527bfbe989de" d="M243.58,285.22a35.56,35.56,0,0,1-8-.78c-1.22-.24-2.52.26-3.68-.49.12-1.13.95-1,1.58-1,10.79-1.05,21.54-2.57,32.26-4.27,22-3.46,43.87-7.25,65.64-12,20.35-4.42,40.6-9.43,60.93-14,16.52-3.69,33.1-7,49.81-9.46,1.61-.24,3.23-.59,4.81.16,2.16-.27,4.25.64,6.4.43-1.09.87-2.42.29-3.62.73a13.36,13.36,0,0,1-3.13.47c-2.85.31-5.67.73-8.5,1.22-2.64.46-5.28.94-7.93,1.33-3.15.46-6.25,1.18-9.38,1.72-4.06.71-8.08,1.59-12.11,2.46-6.6,1.44-13.2,2.85-19.78,4.35s-12.9,3.07-19.35,4.6c-5.41,1.28-10.84,2.53-16.25,3.82-5.79,1.37-11.55,2.83-17.35,4.14-4.26,1-8.52,2-12.81,2.79-3.92.72-7.79,1.79-11.74,2.39-3.32.5-6.61,1.28-9.93,1.85-4.36.75-8.68,1.74-13.06,2.42-2.51.38-5,.83-7.55,1.33-2.26.45-4.53.83-6.82,1.16-2.58.39-5.17.78-7.74,1.31s-5.06.67-7.57,1.16c-3.61.71-7.28.92-10.9,1.63C246.45,285,245,284.84,243.58,285.22Z"/><path class="c5ab371e-4804-4b76-a2ff-4f2495e775fa" d="M163,212.89c.16-.14.26-.27.33-.26a1.09,1.09,0,0,1,.45.21c.17.13.14.19-.07.15S163.29,212.93,163,212.89Z"/><path class="38f6be51-9a9c-4b3c-8f06-a815be343775" d="M446,243.52c-2.64-.17-5.19.68-7.79.94-2.34.23-4.67.76-7,1.16-5.22.91-10.44,1.77-15.64,2.84-4.46.91-8.94,1.74-13.39,2.69-7.88,1.7-15.77,3.33-23.61,5.29-5.7,1.43-11.45,2.64-17.18,4-5.12,1.18-10.22,2.42-15.34,3.58-4.21,1-8.43,1.84-12.64,2.76s-8.41,1.89-12.63,2.76c-4,.82-8,1.55-11.94,2.31-4.17.79-8.33,1.59-12.5,2.35-2.89.52-5.78,1-8.67,1.46-3.56.61-7.12,1.24-10.68,1.84-2.27.39-4.55.74-6.83,1.1-2.09.34-4.18.7-6.27,1-2.65.37-5.28.92-8,1.17-2.22.21-4.41.79-6.65.95-1.61.12-3.21.46-4.81.69-3.26.48-6.56.6-9.82,1.2a14.09,14.09,0,0,1-2.06.08c-.54,0-1.14-.16-1.57.42-3.07.05-6.07-.69-9.11-1-2.72-.26-5.42-.74-8.13-1.14-2.9-.44-5.79-.86-8.68-1.35s-5.77-1.05-8.65-1.58c-3.93-.72-7.83-1.56-11.75-2.35-9.07-1.81-18-4.17-27.06-6.19-6.59-1.47-13.21-2.73-19.82-4-2.32-.46-4.69-.66-7-1l-10-1.2a5.54,5.54,0,0,0-.56,0c-4,0-8-.57-12-.47-5.81.13-11.63,0-17.45.06-2.62,0-5.22.58-7.84.41-.84.52-1.81-.14-2.64.4h-1.5c-12-1.83-24-4.42-36.17-5.37-10.37-.8-20.72-.71-31.09-.6a62.72,62.72,0,0,0-9,.59,2.4,2.4,0,0,1-2.31-.51v-33.8H5.32a53.56,53.56,0,0,1,8.18.79c1.17.18,2.34.07,3.53.32,3.61.74,7.25,1.24,10.87,1.86,1.48.25,2.94.64,4.39,1,6.58,1.54,13.15,3.15,19.68,4.93,3.32.91,6.67,1.75,10,2.7,5.36,1.53,10.81,2.66,16.2,4.08,3.46.91,6.89,2,10.38,2.68,5.94,1.2,11.79,2.86,17.73,4.09,3.72.78,7.46,1.5,11.18,2.33,3.41.75,6.88,1.2,10.32,1.81,3.25.58,6.52,1,9.77,1.58a24.32,24.32,0,0,0,5.39.58,17.49,17.49,0,0,1,4.45.54,48,48,0,0,0,5.57.57c2.9.27,5.85.43,8.77.64,7.75.55,15.5.23,23.25.33a82.23,82.23,0,0,0,10.62-.79c1.73-.21,3.49-.28,5.21-.38,4.18-.23,8.3-.91,12.44-1.42,3.21-.39,6.4-1,9.6-1.51,5.43-.78,10.79-2,16.19-3s10.89-2.2,16.32-3.36c3.18-.68,6.34-1.46,9.52-2.13q8.52-1.8,17-3.72c3.84-.87,7.73-1.43,11.56-2.34,3.6-.86,7.19-1.71,10.83-2.21,3-.41,5.86-1.21,8.83-1.58s6-1,9-1.5a30.39,30.39,0,0,1,4.64-.53,24,24,0,0,0,3.89-.54c2-.32,4-.23,5.94-.64a38.83,38.83,0,0,1,5.39-.48,132.91,132.91,0,0,1,14.8-.49,4.5,4.5,0,0,0,1.66-.22,5.34,5.34,0,0,1,3.16-.1,14.67,14.67,0,0,0,3.72.32,50.16,50.16,0,0,1,6,.05c2.73.34,5.46.29,8.19.67a22.26,22.26,0,0,0,5.39.53,14.06,14.06,0,0,1,3.71.5c3.19.48,6.4,1,9.59,1.48,4.31.73,8.58,1.63,12.89,2.36,3.06.53,6.06,1.57,9.13,2.16,2.57.49,5.14,1.05,7.67,1.7,3.28.84,6.57,1.63,9.84,2.46,2.73.69,5.47,1.36,8.2,2Z"/><path class="38f6be51-9a9c-4b3c-8f06-a815be343775" d="M.25,279.7q0-9.48,0-19c1.19-1,2.63-.94,4-1.06a137,137,0,0,1,14-.49c3.61.06,7.22,0,10.83,0A205.6,205.6,0,0,1,60.54,262c3.63.57,7.27,1.12,10.88,1.94.91.2,1.91.2,2.62,1.05,0,.13,0,.27,0,.41-3.72-.06-7.37.72-11.06,1.16-3.25.38-6.47,1-9.71,1.42s-6.71,1.08-10,1.74q-6.87,1.35-13.7,2.86c-5.61,1.25-11.2,2.57-16.79,3.9-3.81.91-7.61,1.91-11.41,2.87C1,279.41.61,279.57.25,279.7Z"/><path class="f2dd3f25-b6d6-4722-9989-0261fa7b0614" d="M74,265.11a27,27,0,0,1-5.7-1c-3.11-.69-6.26-1.05-9.39-1.61A79,79,0,0,0,51,261.3c-1.86-.14-3.72-.37-5.57-.61-2.9-.39-5.85-.11-8.73-.76a7.35,7.35,0,0,0-1.69-.08c-7.07,0-14.14,0-21.21-.14-3.07-.07-6.09.54-9.16.49-1.14,0-2.33.4-3.52.33,0-.7,0-1.4,0-2.1,3.33-.57,6.73-.1,10.06-.77a8.67,8.67,0,0,1,1.69,0c6.45,0,12.9,0,19.35.11,3.68.05,7.33.49,11,.79,2.23.17,4.47.43,6.71.58,2.54.17,5.07.55,7.6.94,3.14.49,6.27,1,9.39,1.66,4,.8,8.06,1.72,12.09,2.58a1.06,1.06,0,0,1,.63.41C77.78,264.77,75.92,265.35,74,265.11Z"/><path class="3824e2d9-a377-46c2-8c64-904eb5adcfeb" d="M81.18,264.51c.8-.76,1.76-.28,2.64-.4C83,264.86,82.06,264.39,81.18,264.51Z"/><rect class="38f6be51-9a9c-4b3c-8f06-a815be343775" x="0.25" y="300.63" width="611" height="73"/></g></g></svg>