<svg xmlns="http://www.w3.org/2000/svg" xmlns:xlink="http://www.w3.org/1999/xlink" viewBox="0 0 184 92"><defs><style>.cls-1{fill:url(#Degradado_sin_nombre_13);}.cls-2{fill:url(#Degradado_sin_nombre_143);}.cls-3{fill:#fff;}</style><linearGradient id="Degradado_sin_nombre_13" x1="0.5" y1="48.5" x2="179.5" y2="48.5" gradientUnits="userSpaceOnUse"><stop offset="0"/><stop offset="1"/></linearGradient><linearGradient id="Degradado_sin_nombre_143" x1="4.5" y1="43.5" x2="183.5" y2="43.5" gradientUnits="userSpaceOnUse"><stop offset="0" stop-color="#00193c"/><stop offset="0.53" stop-color="#009bc9"/><stop offset="1" stop-color="#00c7f1"/></linearGradient></defs><title>Recurso 1</title><g id="Capa_2" data-name="Capa 2"><g id="Capa_1-2" data-name="Capa 1"><rect class="cls-1" x="0.5" y="5.5" width="179" height="86" rx="15.82" ry="15.82"/><path d="M163.68,6A15.33,15.33,0,0,1,179,21.32V75.68A15.33,15.33,0,0,1,163.68,91H16.32A15.33,15.33,0,0,1,1,75.68V21.32A15.33,15.33,0,0,1,16.32,6H163.68m0-1H16.32A16.32,16.32,0,0,0,0,21.32V75.68A16.32,16.32,0,0,0,16.32,92H163.68A16.32,16.32,0,0,0,180,75.68V21.32A16.32,16.32,0,0,0,163.68,5Z"/><rect class="cls-2" x="4.5" y="0.5" width="179" height="86" rx="15.82" ry="15.82"/><path d="M167.68,1A15.33,15.33,0,0,1,183,16.32V70.68A15.33,15.33,0,0,1,167.68,86H20.32A15.33,15.33,0,0,1,5,70.68V16.32A15.33,15.33,0,0,1,20.32,1H167.68m0-1H20.32A16.32,16.32,0,0,0,4,16.32V70.68A16.32,16.32,0,0,0,20.32,87H167.68A16.32,16.32,0,0,0,184,70.68V16.32A16.32,16.32,0,0,0,167.68,0Z"/><path class="cls-3" d="M47.65,59.69V59.5c0-.48,0-1-.08-1.46,0-.25,0-.5,0-.75a3.39,3.39,0,0,0-.8-2.71,2.34,2.34,0,0,1,0-.91c0-.17,0-.34,0-.49l0-5.15q0-5-.07-10.08a6.88,6.88,0,0,0-.32-1.7c0-.19-.11-.4-.16-.62.6-.8,1-2.05-.28-3.76a1.22,1.22,0,0,1-.15-.62c0-.74,0-1.49,0-2.24,0-.57,0-1.14,0-1.71a.87.87,0,0,1,.14-.58.89.89,0,0,1,.57-.15H58a1.85,1.85,0,0,1,.72.27,5.11,5.11,0,0,0,.48.22l.35.14a5.38,5.38,0,0,1,.66.27,8,8,0,0,1,.9.62l0,.09a.85.85,0,0,0,.56.42c1.44.2,2.19,1.2,3.06,2.36l.21.27a7.89,7.89,0,0,1,1.93,4.6,4.29,4.29,0,0,0,.41,1.46,4.31,4.31,0,0,1,.33,1.09,2.57,2.57,0,0,1-.25,1,5.88,5.88,0,0,0-.27.87A9.66,9.66,0,0,0,67,41.32a9.26,9.26,0,0,1-.16,1.11,8.3,8.3,0,0,1-.45,1.26c-.08.18-.16.36-.23.54a.92.92,0,0,0-.22.68c.08.46-.14.71-.57,1.15a3.2,3.2,0,0,0-.75,1A3.76,3.76,0,0,1,64,48l-.16.19a4.72,4.72,0,0,1-.7.71c-.51.4-1,.8-1.57,1.19l-.65.47-.17.15-.13.11-4.11,1.06-1.69.44V58c0,.67-.72,1.61-1.24,1.63-.89,0-1.78,0-2.69,0ZM55.9,38.11c0,.42-.09.86-.13,1.3a7.3,7.3,0,0,0,0,.94,2.61,2.61,0,0,1-.16,1.34A3.5,3.5,0,0,0,55,44.51a4.23,4.23,0,0,1,0,1.18l0,.21.15.25a1.78,1.78,0,0,0,1,.57,3.44,3.44,0,0,0,.54,0c1.72,0,2.87-1.16,3-3.09a2.89,2.89,0,0,1,.27-.71,4.44,4.44,0,0,0,.32-.77,3,3,0,0,0,.12-1.74,7.83,7.83,0,0,0-.8-1.55l-.37-.62-.08-.15L56,36.91Z"/><path d="M54.64,27.06H58a2.58,2.58,0,0,1,.5.21c.17.09.35.18.52.25l.37.14a4.81,4.81,0,0,1,.59.24,5.6,5.6,0,0,1,.76.53l0,0a1.29,1.29,0,0,0,.91.64c1.17.16,1.8.92,2.72,2.16l.21.27a7.45,7.45,0,0,1,1.83,4.32,5.07,5.07,0,0,0,.44,1.63,3.72,3.72,0,0,1,.3.94,2.54,2.54,0,0,1-.21.78,5.47,5.47,0,0,0-.3.94c-.08.39-.11.77-.15,1.13a7.8,7.8,0,0,1-.15,1,8.92,8.92,0,0,1-.42,1.18c-.08.18-.16.36-.23.54v0h0a1.29,1.29,0,0,0-.25,1c0,.18,0,.27-.44.71a3.67,3.67,0,0,0-.85,1.16,3.1,3.1,0,0,1-.53.76l-.16.2a3.63,3.63,0,0,1-.62.62c-.51.41-1,.8-1.57,1.19l-.63.47-.21.18,0,0c-1.3.35-2.6.68-4,1l-1.3.33-.75.19V58a1.55,1.55,0,0,1-.75,1.13c-.78,0-1.63,0-2.68,0H48.13c0-.4,0-.79-.07-1.18,0-.22,0-.46,0-.71a4,4,0,0,0-.86-3,4.52,4.52,0,0,1,0-.63c0-.18,0-.35,0-.52l0-5.18c0-3.3,0-6.7-.07-10.05a7.57,7.57,0,0,0-.33-1.82c0-.12-.07-.25-.11-.39.56-.86.95-2.28-.41-4.14a.86.86,0,0,1-.06-.35c0-.74,0-1.49,0-2.23,0-.57,0-1.14,0-1.71a1.1,1.1,0,0,1,0-.21l.2,0h8.27m2,20.2c2,0,3.34-1.36,3.55-3.54a2.1,2.1,0,0,1,.22-.54,4.6,4.6,0,0,0,.35-.88,3.38,3.38,0,0,0,.11-2A8.37,8.37,0,0,0,60,38.63c-.11-.19-.24-.39-.35-.59l-.18-.31-.33-.13-2.3-.91-1.22-.48-.14,1.3-.05.53c0,.42-.1.87-.14,1.32a8.43,8.43,0,0,0,0,1,3.73,3.73,0,0,1,0,1,4.05,4.05,0,0,0-.75,3.18,4.2,4.2,0,0,1,0,1.06,1.05,1.05,0,0,0,.21.83,2.22,2.22,0,0,0,1.32.78c.21,0,.41,0,.61,0m-2-21.2-7.75,0h-.52c-.87,0-1.23.4-1.21,1.24,0,1.32,0,2.64,0,4a1.74,1.74,0,0,0,.25.9c.95,1.31.94,2.43.14,3.34A13.19,13.19,0,0,1,46.11,38c.07,5.07.07,10.15.1,15.22,0,.6-.14,1.41.18,1.75.92,1,.59,2.08.67,3.15,0,.71.08,1.41.12,2.1l3.73,0c.91,0,1.81,0,2.71,0s1.71-1.25,1.72-2.13V52.66c2-.51,3.71-.95,5.44-1.41a1.61,1.61,0,0,0,.46-.34c.75-.55,1.5-1.1,2.23-1.67a4.86,4.86,0,0,0,.78-.79,5.1,5.1,0,0,0,.84-1.2c.35-.86,1.54-1.25,1.34-2.42,0-.12.14-.27.2-.41a14.57,14.57,0,0,0,.7-1.87c.17-.72.15-1.49.3-2.21a8.25,8.25,0,0,0,.53-2c-.08-.86-.7-1.68-.74-2.54a8.54,8.54,0,0,0-2-4.88c-1-1.3-1.84-2.57-3.6-2.81-.14,0-.23-.3-.38-.41a7.26,7.26,0,0,0-1-.67,9,9,0,0,0-1.06-.43A4.36,4.36,0,0,0,58,26.07Zm2,20.2-.48,0c-.25,0-.69-.34-.67-.45.21-1.24-.5-2.54.52-3.77.46-.56.21-1.69.29-2.55.06-.64.14-1.28.2-1.84l2.3.91a13.7,13.7,0,0,1,1.13,2.08,2.62,2.62,0,0,1-.14,1.45,11.14,11.14,0,0,0-.59,1.57c-.16,1.65-1.08,2.63-2.56,2.63Z"/><path class="cls-3" d="M94.52,60.5a3,3,0,0,1-1.25-.33A5.5,5.5,0,0,0,91,59.81h-.74c-.4,0-.53-.09-.56-.13a.63.63,0,0,1-.05-.45,5.36,5.36,0,0,0,0-1c0-.87,0-1.39.63-1.78a.86.86,0,0,0,.33-.78c0-.25,0-.42,0-.6A2.55,2.55,0,0,1,91.28,53a1.9,1.9,0,0,0,.39-1.4,2.8,2.8,0,0,1,0-.51,7.4,7.4,0,0,0,0-.94,2.33,2.33,0,0,1,.58-1.89,1.82,1.82,0,0,0,.34-1.46,3,3,0,0,1,0-.75A5.05,5.05,0,0,1,93.17,45l.21-.44a.56.56,0,0,0,.21-.59A3.35,3.35,0,0,1,94,41.55a5.84,5.84,0,0,0,.62-2.08c0-.29,0-.58,0-.87a2.69,2.69,0,0,1,.66-2.37,1.61,1.61,0,0,0,.31-1.33,2.78,2.78,0,0,1,0-.5c0-.19,0-.39,0-.58,0-.74.06-1.17.55-1.59.83-.69.24-2.29-.18-3.18a5.27,5.27,0,0,1-.34-2.23,3.16,3.16,0,0,1,.91-.26,11.45,11.45,0,0,1,1.17,0H99.3a5.11,5.11,0,0,0,2.35-.64,2.74,2.74,0,0,1,1.22-.22,13.56,13.56,0,0,1,1.4.1l.43.05a9.19,9.19,0,0,1,.15,1c0,.12,0,.24,0,.36a1.47,1.47,0,0,0,.92,1.64,4,4,0,0,1,.07.55c0,.24,0,.49,0,.74a3,3,0,0,0,.89,2.77c0,.09,0,.25,0,.36s0,.27,0,.39,0,.41,0,.62a3.32,3.32,0,0,0,1,2.69,2.77,2.77,0,0,1,.06.53c0,.15,0,.29,0,.43s0,.45.05.68a3.08,3.08,0,0,0,.9,2.47,2.55,2.55,0,0,1,.06.8,4.34,4.34,0,0,0,0,1,5.59,5.59,0,0,0,.36,1,5.57,5.57,0,0,1,.28.77,14.05,14.05,0,0,1,.26,1.66l0,.25,0,.38a2.48,2.48,0,0,0,.81,2c.11.09.11.66.11,1a6.85,6.85,0,0,0,0,.91,4.34,4.34,0,0,1,0,.73,2.19,2.19,0,0,0,.94,2.3c0,.07,0,.16,0,.22a2.46,2.46,0,0,0,0,.28c0,.23,0,.46,0,.69a4.57,4.57,0,0,0,.87,2.83.5.5,0,0,1,.12.55.93.93,0,0,1-.84.46h-.5a1.9,1.9,0,0,0-1.83.86l-.19,0-.67,0c-1.22.06-2.49.12-3.72.12a.75.75,0,0,1-.45-.29,10,10,0,0,1-.51-1.09c-.15-.34-.3-.69-.47-1a1.34,1.34,0,0,0-1.1-.61c-1.09,0-2.18,0-3.28,0H96l-.07,1c0,.33,0,.6,0,.86C95.78,59.9,95.34,60.5,94.52,60.5Zm4.75-18.45-.12.31c-.14.35-.29.69-.44,1a7.68,7.68,0,0,0-.94,3.91c0,.16,0,.34,0,.51a3,3,0,0,1-.67,2.82l-.92.86h6.16l-.16-.62c-.08-.31-.15-.59-.23-.85-.15-.56-.28-1-.37-1.53a4.11,4.11,0,0,1,0-.72c0-.59,0-1.19-.4-1.52s-.51-.78-.52-1.45a5.54,5.54,0,0,0,0-.71L100.41,42Z"/><path d="M102.87,26.15a13,13,0,0,1,1.35.1h0c0,.16,0,.35.08.58s0,.2,0,.31a2,2,0,0,0,1,2c0,.07,0,.14,0,.22s0,.45,0,.7a3.53,3.53,0,0,0,.9,3v.12c0,.15,0,.31,0,.44s0,.4,0,.59a3.88,3.88,0,0,0,1,2.93c0,.08,0,.21,0,.3s0,.33,0,.47,0,.41,0,.64a3.63,3.63,0,0,0,.95,2.71,4.55,4.55,0,0,1,0,.53,4.85,4.85,0,0,0,.06,1.13,6,6,0,0,0,.39,1.11,5,5,0,0,1,.25.7,10.94,10.94,0,0,1,.25,1.6l0,.25,0,.35a3,3,0,0,0,.89,2.22,4.65,4.65,0,0,1,0,.68,6.32,6.32,0,0,0,.06,1,4.39,4.39,0,0,1,0,.63,2.75,2.75,0,0,0,1,2.61c0,.1,0,.19,0,.27s0,.45,0,.67a5,5,0,0,0,1,3.11l0,.06a.57.57,0,0,1-.4.14h-.47a2.45,2.45,0,0,0-2.11.88l-.6,0c-1.2.06-2.43.12-3.64.12l-.07,0h0a9.89,9.89,0,0,1-.49-1c-.15-.35-.3-.71-.49-1.06a1.82,1.82,0,0,0-1.54-.88c-1.08,0-2.16,0-3.26,0H95.5l-.07.93,0,.58c0,.33,0,.6,0,.87C95.28,60,94.73,60,94.52,60a2.7,2.7,0,0,1-1-.28,6,6,0,0,0-2.5-.41h-.85a6.3,6.3,0,0,0,0-1.06c0-.87,0-1.1.39-1.33a1.33,1.33,0,0,0,.57-1.2v-.06c0-.18,0-.36,0-.54,0-.85,0-1.31.5-1.73a2.25,2.25,0,0,0,.55-1.75,3,3,0,0,1,0-.45,7,7,0,0,0,.06-1c0-.75,0-1.16.43-1.54a2.25,2.25,0,0,0,.49-1.83,2.93,2.93,0,0,1,0-.62,4.3,4.3,0,0,1,.43-1c.06-.12.12-.24.17-.36a1,1,0,0,0,.28-1,3,3,0,0,1,.43-2,6.29,6.29,0,0,0,.66-2.26c0-.31,0-.61,0-.91,0-1,0-1.5.5-2a2.06,2.06,0,0,0,.47-1.72,3.05,3.05,0,0,1,0-.43c0-.2,0-.41,0-.61,0-.71,0-1,.37-1.22,1-.87.55-2.54,0-3.79a4.35,4.35,0,0,1-.29-1.67,3,3,0,0,1,.46-.11c.31,0,.66,0,1.12,0h1.55a5.68,5.68,0,0,0,2.56-.69,2.22,2.22,0,0,1,1-.17M95,52H103l-.32-1.25-.23-.86c-.15-.54-.28-1-.36-1.47a3.17,3.17,0,0,1,0-.64,2.24,2.24,0,0,0-.59-1.92c-.29-.23-.32-.4-.33-1.06a7,7,0,0,0,0-.77c0-.37-.1-.74-.14-1.12l-.06-.5-.11-.91-.92,0h-.35l-.66,0-.24.62c-.13.34-.28.68-.43,1a8.34,8.34,0,0,0-1,4.16c0,.17,0,.35,0,.52.12,1.08.15,1.77-.52,2.4L95,52m7.9-26.85a3.22,3.22,0,0,0-1.44.27,4.69,4.69,0,0,1-2.14.59H97.76c-.41,0-.82,0-1.22,0s-1.34.34-1.35.55a5.88,5.88,0,0,0,.38,2.65c.3.63.88,2.11.31,2.59-.87.73-.67,1.63-.76,2.5-.05.52.13,1.26-.15,1.51-1.14,1-.75,2.37-.81,3.59-.08,1.61-1.54,2.89-1,4.61,0,0-.12.11-.15.17A9.59,9.59,0,0,0,92.22,46c-.16.65.13,1.62-.23,2-1,.94-.64,2.06-.79,3.12-.08.55,0,1.32-.26,1.61-.93.86-.78,1.91-.84,3,0,.15,0,.4-.09.45-1.28.77-.74,2.05-.87,3.13-.1.81.26,1.13,1.09,1.14H91a4.9,4.9,0,0,1,2.08.32,3.69,3.69,0,0,0,1.46.37c1.07,0,1.75-.77,1.81-2.27,0-.39.06-.79.1-1.42h2.86c1.1,0,2.17,0,3.25,0a.88.88,0,0,1,.67.35c.36.69.6,1.45,1,2.12a1.19,1.19,0,0,0,.86.54h0c1.47,0,3-.08,4.42-.15.19,0,.49,0,.55-.17a1.37,1.37,0,0,1,1.45-.71H112c1.1-.06,1.75-1,1.08-1.82-.83-1-.69-2.15-.82-3.27,0-.27,0-.72-.14-.79-1.25-.65-.69-1.81-.84-2.76-.11-.74.1-1.8-.32-2.17-.71-.63-.59-1.3-.68-2a13.27,13.27,0,0,0-.3-2c-.15-.6-.5-1.16-.63-1.77s.13-1.71-.26-2.08c-.93-.86-.66-1.87-.79-2.85-.06-.43,0-1-.25-1.26-1-.85-.74-2-.83-3,0-.35.05-.88-.14-1-1.12-.89-.7-2.08-.75-3.19,0-.33-.08-.9-.24-.95-1-.26-.7-1-.77-1.64,0-.49-.17-1.38-.32-1.4-.69-.05-1.45-.17-2.15-.17ZM97.49,51c1.24-1.17.87-2.56.77-3.73-.14-1.82.76-3.2,1.35-4.73H100c.06.54.12,1.09.19,1.63.11.86-.19,1.75.74,2.49.36.29.12,1.28.24,1.94s.37,1.47.61,2.41Z"/><path class="cls-3" d="M124.92,60.48c-.28,0-1.12,0-1.15-1.85,0-1.67,0-3.34-.06-5l0-3.51v-.29a1.79,1.79,0,0,0-1-2c-.15-.38-.25-.72-.36-1a18.33,18.33,0,0,0-.83-2.2,16,16,0,0,0-1.19-2c-.18-.27-.36-.53-.53-.8l-.11-.13c-.1-.29-.2-.62-.31-.95a20.07,20.07,0,0,0-.81-2.2,15.57,15.57,0,0,0-1.08-1.92c-.17-.26-.33-.53-.49-.79l-.11-.17a2.36,2.36,0,0,1-.14-.24c-.13-.39-.26-.78-.38-1.17a24.27,24.27,0,0,0-.89-2.46,4.85,4.85,0,0,0-.78-1.15,7.94,7.94,0,0,1-.54-.72,3.07,3.07,0,0,1-.41-1,2.35,2.35,0,0,1,.66-.19c.92,0,1.85,0,2.78,0s2,0,3,0a2.54,2.54,0,0,0,1.46-.69,1.89,1.89,0,0,1,1.36-.48,7.48,7.48,0,0,1,1.23.14l.3.06a4,4,0,0,1,.41,1.27,2.9,2.9,0,0,1,0,.79,2.24,2.24,0,0,0,.86,2.25,3.32,3.32,0,0,1,0,.46c0,.17,0,.34,0,.49s0,.21,0,.31a1.75,1.75,0,0,0,.9,1.71s0,.49,0,.73,0,.32,0,.45a3.37,3.37,0,0,1,0,.44,2.79,2.79,0,0,0,.94,2.26,3.79,3.79,0,0,1,0,.75,5,5,0,0,0,0,.78A3.18,3.18,0,0,0,128,41l.08.23.11.37,1.28,0,0-.44,0-.63a7.62,7.62,0,0,1,.13-1.29,6.92,6.92,0,0,1,.45-1.27l.21-.53a.64.64,0,0,0,.21-.53,5.85,5.85,0,0,1,.52-2.66,6.74,6.74,0,0,0,.57-3.37,2,2,0,0,1,.26-1.62,2.44,2.44,0,0,1,1.87-.56h.62l.66,0a5.52,5.52,0,0,0,.86-.06,3.46,3.46,0,0,0,1.17-.52c.11-.06.21-.13.32-.18a1.7,1.7,0,0,0,.31-.26l0,0h.64c.54,0,1.08,0,1.62,0s1.23,0,1.75.07h0a1.67,1.67,0,0,1-.15.23,3.32,3.32,0,0,0-.41.68,1.71,1.71,0,0,1-.28.49,4.11,4.11,0,0,0-1,2.18,2.78,2.78,0,0,1-.77,1.74.7.7,0,0,0-.23.31l-.35,1.06c-.25.74-.5,1.48-.77,2.22a8.81,8.81,0,0,1-.5,1l-.19.37a.68.68,0,0,0-.21.29l-.46,1.31-.69,2a2.28,2.28,0,0,1-.31.54,1.26,1.26,0,0,1-.16.13.75.75,0,0,0-.42.73,3.11,3.11,0,0,1-.6,2.09,5.79,5.79,0,0,0-.62,1.33,9.55,9.55,0,0,1-.88,1.83c-.22.38-.44.76-.62,1.15a3.19,3.19,0,0,0-.28,1.34c0,1.27,0,2.54-.05,3.81s0,2.5,0,3.75c0,1.47,0,1.47-1.52,1.56l-1.32,0-1.32,0h-.13a3.55,3.55,0,0,0-1.34.24,3.35,3.35,0,0,1-1.28.34Z"/><path d="M123,28a6,6,0,0,1,1.14.14h0a7.46,7.46,0,0,1,.26.94,2.71,2.71,0,0,1,0,.65,2.78,2.78,0,0,0,.87,2.54,1.41,1.41,0,0,1,0,.2c0,.19,0,.38,0,.54s0,.19,0,.28a2.31,2.31,0,0,0,.9,2c0,.15,0,.35,0,.49s0,.33,0,.48l0,.41a3.33,3.33,0,0,0,1,2.49c0,.13,0,.33,0,.48a5,5,0,0,0,0,.86,3.54,3.54,0,0,0,.2.75c0,.07.05.14.07.22l.22.73.77,0h.46l.89,0,.07-.89,0-.64a7.32,7.32,0,0,1,.11-1.2,7.51,7.51,0,0,1,.43-1.19c.06-.14.11-.28.17-.43a1.1,1.1,0,0,0,.28-.88,5.41,5.41,0,0,1,.5-2.43,7.16,7.16,0,0,0,.59-3.62,1.63,1.63,0,0,1,.15-1.21,2.12,2.12,0,0,1,1.51-.39h.58l.68,0a5.3,5.3,0,0,0,.94-.07,3.78,3.78,0,0,0,1.35-.58l.3-.18a1.3,1.3,0,0,0,.31-.22h.45l1.6,0,.89,0-.12.25a1.69,1.69,0,0,1-.18.34,4.54,4.54,0,0,0-1.11,2.44,2.36,2.36,0,0,1-.59,1.45,1.06,1.06,0,0,0-.39.53c-.12.35-.24.7-.35,1-.25.74-.5,1.49-.77,2.22a7.23,7.23,0,0,1-.47,1l-.15.29a1.14,1.14,0,0,0-.28.43c-.16.44-.31.88-.46,1.32l-.69,1.94a1.58,1.58,0,0,1-.21.38l-.08.06a1.25,1.25,0,0,0-.63,1.23,2.59,2.59,0,0,1-.54,1.75,6.94,6.94,0,0,0-.66,1.43A8.83,8.83,0,0,1,132.4,48c-.21.38-.44.77-.63,1.19a3.64,3.64,0,0,0-.33,1.54c0,1.28,0,2.55-.05,3.83s0,2.49,0,3.73a8.2,8.2,0,0,1-.07,1,6.65,6.65,0,0,1-1,.1l-1.3,0-1.34,0h-.13a4.08,4.08,0,0,0-1.51.28,2.9,2.9,0,0,1-1.08.3c-.19,0-.64,0-.66-1.36,0-1.66,0-3.33-.06-5l0-3.52v-.28a2.32,2.32,0,0,0-1.05-2.33l-.29-.84a17.45,17.45,0,0,0-.85-2.27,16.34,16.34,0,0,0-1.23-2c-.18-.26-.35-.51-.52-.78l-.08-.11-.29-.86a20.36,20.36,0,0,0-.82-2.25,16.27,16.27,0,0,0-1.12-2c-.16-.27-.33-.53-.48-.79l-.12-.19a.66.66,0,0,1-.08-.13c-.14-.38-.26-.77-.39-1.15a25.19,25.19,0,0,0-.9-2.51,5.44,5.44,0,0,0-.86-1.27,7.38,7.38,0,0,1-.49-.65,4,4,0,0,1-.23-.47h.06c.92,0,1.86,0,2.77,0s2,0,3,0a3,3,0,0,0,1.77-.82,1.44,1.44,0,0,1,1-.35m0-1a2.41,2.41,0,0,0-1.69.6,2,2,0,0,1-1.15.57c-1.91.07-3.83,0-5.75.08-.42,0-1.17.33-1.17.48a3.35,3.35,0,0,0,.51,1.51,20.22,20.22,0,0,1,1.3,1.82c.5,1.15.83,2.39,1.25,3.58a2.5,2.5,0,0,0,.29.5,28.34,28.34,0,0,1,1.55,2.66c.46,1,.75,2.11,1.12,3.16,0,.07.09.12.14.19a28.26,28.26,0,0,1,1.69,2.7c.48,1,.77,2.12,1.15,3.19a.54.54,0,0,0,.2.28c.91.35.73,1.14.74,1.83,0,2.84,0,5.68.09,8.52,0,1.55.61,2.34,1.66,2.34a3.7,3.7,0,0,0,1.49-.39,3.64,3.64,0,0,1,1.29-.2c.88,0,1.76,0,2.64-.08,1.82-.11,2-.24,2-2.05,0-2.52,0-5,.1-7.56a2.94,2.94,0,0,1,.23-1.14,23.49,23.49,0,0,0,1.53-3.05c.37-1.23,1.49-2.2,1.23-3.65,0-.12.35-.28.48-.46a2.72,2.72,0,0,0,.39-.68c.39-1.09.76-2.18,1.15-3.27,0-.07.12-.11.16-.17a16.34,16.34,0,0,0,.74-1.52c.4-1.09.75-2.2,1.12-3.3a.73.73,0,0,1,.09-.08c1.21-1,.65-2.85,1.76-4,.32-.31.42-.84.72-1.19.42-.51.42-1-.22-1.06s-1.19-.07-1.79-.07c-.79,0-1.59,0-2.39.05-.15,0-.29.25-.45.34a4.4,4.4,0,0,1-1.33.64,4.1,4.1,0,0,1-.78.06l-1.26,0h0c-2,0-2.93.81-2.63,2.76.34,2.19-1.34,3.9-1.09,6,0,.09-.14.18-.18.29a12.8,12.8,0,0,0-.68,1.88,13,13,0,0,0-.17,2l-.45,0a4,4,0,0,1-.24-.82c-.09-.63.11-1.55-.24-1.84-.83-.69-.7-1.52-.79-2.37-.06-.54,0-1.39-.32-1.56-.75-.43-.6-1-.66-1.64,0-.43.06-1.11-.18-1.26-1.16-.75-.53-1.86-.74-2.79-.14-.6-.39-1.59-.71-1.64A10.93,10.93,0,0,0,123,27Z"/><path class="cls-3" d="M71.83,60.57a1.54,1.54,0,0,1-.18-.42,13.2,13.2,0,0,1-.05-1.42c0-.4,0-.8,0-1.2,0-.17,0-.34,0-.51a2.94,2.94,0,0,0-.8-2.38,2.49,2.49,0,0,1,0-.86c0-.14,0-.27,0-.4l0-6.64q0-6.51-.11-13a2.3,2.3,0,0,0-.3-1,2.08,2.08,0,0,1-.2-.53c-.11-.9-.17-1.82-.22-2.72l0-.69c.26-.11.51-.24.77-.36a8.42,8.42,0,0,1,2.17-.82,13.71,13.71,0,0,1,2-.12h1l1.08,0h.9l.41,0a1.77,1.77,0,0,0,1.47-.62l.17.07a5.61,5.61,0,0,1,.07,1.31v.89c0,3.24-.08,6.58-.17,9.87a2.06,2.06,0,0,1-.26.69,4.52,4.52,0,0,0-.23.5l-.07.16a2,2,0,0,0-.2.77q-.06,6.24-.07,12.48a1.13,1.13,0,0,0,.08.4l0,.12.1.37h.39c.44,0,.9.05,1.35.09s.93.08,1.37.08a3.54,3.54,0,0,0,1.71-.35,6.33,6.33,0,0,1,2.62-.65l.4,0h.27a.74.74,0,0,1,.55.15.87.87,0,0,1,0,.67,3.93,3.93,0,0,0,0,1.08c0,.78,0,1.17-.55,1.47a.79.79,0,0,0-.36.71v.1c-.2,1.32-.76,1.82-2,1.86l-2,0c-1.55,0-3.14.07-4.71.16a4.3,4.3,0,0,0-1.21.31,4,4,0,0,1-.91.24l-.69,0-.91,0c-.31,0-.63,0-.94,0A7.94,7.94,0,0,0,71.83,60.57Z"/><path d="M79.39,27.76c0,.17,0,.34,0,.52v.85c0,3.25-.08,6.61-.17,9.91a2.46,2.46,0,0,1-.21.47,5.45,5.45,0,0,0-.25.55.84.84,0,0,1-.06.14,2.55,2.55,0,0,0-.24,1q-.06,6.24-.07,12.48a1.82,1.82,0,0,0,.1.56l0,.09.2.74h.77a12.19,12.19,0,0,1,1.3.09c.47,0,1,.08,1.42.08a4.05,4.05,0,0,0,2-.41,5.58,5.58,0,0,1,2.43-.59l.4,0h.35a1,1,0,0,1,0,.21,4.64,4.64,0,0,0-.05,1.22c0,.8,0,.86-.28,1a1.32,1.32,0,0,0-.63,1.12v.07c-.17,1.08-.52,1.4-1.58,1.43l-2,0c-1.55,0-3.15.07-4.73.16a4.77,4.77,0,0,0-1.35.33,2.92,2.92,0,0,1-.78.22l-.65,0-.89,0-1,0a9.12,9.12,0,0,0-1.24.08c0-.42,0-.84,0-1.29s0-.81,0-1.23c0-.16,0-.32,0-.49a3.45,3.45,0,0,0-.85-2.63,3.86,3.86,0,0,1,0-.59c0-.14,0-.28,0-.41q0-3.35,0-6.7,0-6.48-.11-13a2.57,2.57,0,0,0-.35-1.19,2.44,2.44,0,0,1-.16-.38c-.1-.88-.16-1.8-.21-2.68,0-.12,0-.24,0-.36l.47-.22a7.42,7.42,0,0,1,2-.77A11.23,11.23,0,0,1,74.72,28h1l1.09,0h.88l.43,0a2.61,2.61,0,0,0,1.22-.27m0-1.46a1.24,1.24,0,0,1-1.27.73l-.76,0h-.55l-2.14,0a12.76,12.76,0,0,0-2,.13,15.45,15.45,0,0,0-3.31,1.32.13.13,0,0,0-.07.09c.08,1.24.13,2.49.28,3.73.06.5.5,1,.5,1.46.08,6.56.1,13.12.16,19.68,0,.55-.11,1.32.2,1.61.81.77.6,1.68.65,2.56s0,1.76.07,2.64a1.6,1.6,0,0,0,.51.92h0a7.13,7.13,0,0,1,1.72-.18c.61,0,1.23.05,1.85.05L76,61c.71-.05,1.4-.51,2.11-.55,2.23-.13,4.47-.15,6.71-.21a2.32,2.32,0,0,0,2.54-2.28c0-.16,0-.4.1-.45,1.3-.67.64-1.91.85-2.89s-.22-1.42-1.08-1.42h-.32a7.71,7.71,0,0,0-3.21.75,3,3,0,0,1-1.47.29c-.86,0-1.82-.17-2.72-.17a1.43,1.43,0,0,1-.1-.38q0-6.24.07-12.48a2.22,2.22,0,0,1,.24-.77,5,5,0,0,0,.52-1.34c.09-3.56.14-7.12.18-10.68a6.14,6.14,0,0,0-.11-1.66c-.06-.2-.55-.29-.83-.43Z"/></g></g></svg>